<svg width="26" height="18" viewBox="0 0 26 18" fill="none" xmlns="http://www.w3.org/2000/svg">
<path d="M5.06631 1.11863e-06L10.5114 2.3209e-06L5.44169 9.00172L-1.9482e-06 9.00172L5.06631 1.11863e-06Z" fill="#079C69"/>
<path d="M0 9.00122L5.44169 9.00122L7.78709 13.1683L5.06631 17.9994L0 9.00122Z" fill="#079C69"/>
<path d="M0 9.00122L5.44169 9.00122L7.78709 13.1683L5.06631 17.9994L0 9.00122Z" fill="white" fill-opacity="0.4"/>
<path d="M5.06738 18L15.2034 2.2291e-06L17.9242 4.83461L10.5125 18L5.06738 18Z" fill="#079C69"/>
<path d="M20.6439 1.19674e-06L25.7136 9.00173L20.2684 9.00172L15.2021 0L20.6439 1.19674e-06Z" fill="#079C69"/>
<path d="M20.6439 1.19674e-06L25.7136 9.00173L20.2684 9.00172L15.2021 0L20.6439 1.19674e-06Z" fill="white" fill-opacity="0.4"/>
<path d="M20.6438 17.9994L15.2021 17.9994L20.2684 9.00122L25.7135 9.00122L20.6438 17.9994Z" fill="#079C69"/>
</svg>
